PathFileType	4	(X/Y/Z)	/Users/itak/Documents/Research/Walk-IL/dataset/trc/00494_00167.trc
DataRate	CameraRate	NumFrames	NumMarkers	Units	OrigDataRate	OrigDataStartFrame	OrigNumFrames
100.000000	100.000000	4	53	mm	100.000000	370	593
Frame#	Time	RPSI			LPSI			L3			STRN			T10			C7			CLAV			RBAK			LBAK			LSHO			LUPA			LAEL			LAOL			LWTS			LWPS			LFRA			LIFD			LHPS			LHTS			RSHO			RUPA			RAEL			RAOL			RWTS			RWPS			RFRA			RIFD			RHTS			RHPS			RBHD			LFHD			RFHD			LBHD			LHIP			RHIP			RASI			LASI			LKNE			LTHI			LANK			LTIP			LTOE			LMT1			LMT5			LHEE			RKNE			RTHI			RANK			RTIP			RTOE			RMT1			RMT5			RHEE			
		X1	Y1	Z1	X2	Y2	Z2	X3	Y3	Z3	X4	Y4	Z4	X5	Y5	Z5	X6	Y6	Z6	X7	Y7	Z7	X8	Y8	Z8	X9	Y9	Z9	X10	Y10	Z10	X11	Y11	Z11	X12	Y12	Z12	X13	Y13	Z13	X14	Y14	Z14	X15	Y15	Z15	X16	Y16	Z16	X17	Y17	Z17	X18	Y18	Z18	X19	Y19	Z19	X20	Y20	Z20	X21	Y21	Z21	X22	Y22	Z22	X23	Y23	Z23	X24	Y24	Z24	X25	Y25	Z25	X26	Y26	Z26	X27	Y27	Z27	X28	Y28	Z28	X29	Y29	Z29	X30	Y30	Z30	X31	Y31	Z31	X32	Y32	Z32	X33	Y33	Z33	X34	Y34	Z34	X35	Y35	Z35	X36	Y36	Z36	X37	Y37	Z37	X38	Y38	Z38	X39	Y39	Z39	X40	Y40	Z40	X41	Y41	Z41	X42	Y42	Z42	X43	Y43	Z43	X44	Y44	Z44	X45	Y45	Z45	X46	Y46	Z46	X47	Y47	Z47	X48	Y48	Z48	X49	Y49	Z49	X50	Y50	Z50	X51	Y51	Z51	X52	Y52	Z52	X53	Y53	Z53	

371	3.7	-199.1086120605469	950.7872314453125	91.59450531005859	-270.6390991210938	941.4149780273438	-31.12653160095215	-223.9069976806641	1046.768920898438	29.64864349365234	-22.99851036071777	1249.844604492188	-147.8317565917969	-250.8388061523438	1168.567749023438	25.41679954528809	-214.4115905761719	1438.975219726562	-28.18994331359863	-66.80150604248047	1359.642333984375	-140.0523986816406	-199.6028137207031	1332.5595703125	93.73950958251953	-295.5305786132812	1376.331665039062	-83.05723571777344	-261.7560729980469	1391.846313476562	-206.8971557617188	-307.114990234375	1264.130004882812	-279.2684631347656	-259.650390625	1055.586181640625	-327.7453002929688	-286.7257995605469	1027.5810546875	-232.1393737792969	-105.20361328125	897.3823852539062	-343.4650573730469	-165.298095703125	860.9136352539062	-368.472900390625	-218.4550170898438	978.1932983398438	-352.8573608398438	-43.93510055541992	748.2046508789062	-366.6416015625	-130.6744995117188	792.0494995117188	-380.74853515625	-65.69788360595703	823.6260986328125	-367.9868774414062	-64.60822296142578	1434.612915039062	60.76275253295898	-33.46525573730469	1387.370727539062	139.6222076416016	21.66281890869141	1116.963500976562	233.4943237304688	-41.59927368164062	1091.349975585938	230.2248687744141	105.635368347168	912.2976684570312	155.7411651611328	89.04926300048828	902.9189453125	241.6361236572266	37.99354553222656	1060.542114257812	245.1914825439453	128.9161529541016	758.60205078125	170.3098754882812	135.8332214355469	818.2431640625	161.876708984375	111.2798690795898	815.83349609375	234.97998046875	-78.36726379394531	1645.98876953125	-67.94142150878906	-158.3219604492188	1633.611206054688	-258.3257751464844	-42.75203323364258	1652.3447265625	-200.5894470214844	-243.2891693115234	1625.78271484375	-131.2721252441406	-201.0411529541016	836.090576171875	-196.3188781738281	-13.80108261108398	873.962158203125	155.5183258056641	34.16159820556641	915.1198120117188	43.87408065795898	-82.03813171386719	887.8020629882812	-181.5249633789062	-106.9584274291992	427.2180786132812	-115.1209487915039	-123.9261932373047	575.3966064453125	-167.5165252685547	-143.9999847412109	32.01018905639648	11.16714954376221	-110.7141036987305	275.83056640625	-89.40048980712891	90.71501922607422	40.76902389526367	-55.58238983154297	39.26411056518555	51.54609680175781	7.846068859100342	-22.19765472412109	39.76440048217773	-85.30940246582031	-145.4521942138672	46.76235580444336	88.49837493896484	114.6944427490234	512.28173828125	164.3843383789062	58.01374435424805	762.2761840820312	157.6793060302734	-36.17663955688477	131.1179809570312	375.5248718261719	93.10565948486328	386.7691955566406	231.8007354736328	85.31535339355469	51.63034057617188	218.8789215087891	20.14610862731934	84.22730255126953	220.9704132080078	55.42013168334961	55.93149566650391	316.9510192871094	-105.0002136230469	171.2458343505859	373.1246032714844	
372	3.71	-190.0892639160156	950.6555786132812	91.00392913818359	-264.8039245605469	941.4086303710938	-29.83976745605469	-216.9842987060547	1046.72119140625	29.24039268493652	-19.57188606262207	1249.456665039062	-152.6372375488281	-243.9499053955078	1168.204833984375	24.74032211303711	-208.741455078125	1438.673950195312	-29.73783493041992	-63.01025772094727	1359.285278320312	-143.9567260742188	-191.9290466308594	1332.130493164062	92.01328277587891	-290.7812194824219	1376.15966796875	-83.36136627197266	-258.9422607421875	1391.672729492188	-207.6311645507812	-304.5686950683594	1264.139526367188	-279.9883117675781	-255.6301116943359	1056.235961914062	-330.5577392578125	-282.0809631347656	1027.398681640625	-235.0962066650391	-100.2682189941406	898.989990234375	-347.9396362304688	-160.1860961914062	862.3818969726562	-373.0814208984375	-214.1291198730469	979.2552490234375	-356.4115905761719	-38.40042877197266	750.1233520507812	-371.9678344726562	-125.2733688354492	793.6948852539062	-385.7908630371094	-60.46758651733398	825.4573364257812	-372.8464050292969	-57.62730407714844	1434.19921875	56.88055801391602	-25.2563304901123	1387.135498046875	135.2901763916016	31.68969535827637	1117.250244140625	229.2557373046875	-31.52625465393066	1091.339599609375	227.0542449951172	115.8439025878906	913.5558471679688	149.8870391845703	100.5506057739258	903.692626953125	235.9366302490234	48.52450942993164	1060.901245117188	240.6370697021484	141.5826263427734	760.240234375	163.6587371826172	147.5232238769531	820.0051879882812	155.3627624511719	123.9203186035156	816.9634399414062	228.7334442138672	-73.14421844482422	1645.61376953125	-70.64813995361328	-154.0267181396484	1633.55029296875	-260.62109375	-38.16719436645508	1651.893432617188	-203.4716644287109	-238.37939453125	1625.937377929688	-133.1898803710938	-199.8722686767578	836.0697631835938	-196.8353576660156	-2.954989671707153	873.716064453125	149.7920532226562	41.70761108398438	914.9127197265625	36.92799377441406	-80.43791198730469	887.455810546875	-185.2694396972656	-106.3076248168945	427.01025390625	-116.1652526855469	-123.5540771484375	575.2776489257812	-168.7093505859375	-143.9264068603516	32.04193878173828	11.21045780181885	-110.4632110595703	275.6889953613281	-89.99778747558594	90.71354675292969	40.76290893554688	-55.75383377075195	39.24490737915039	51.71173858642578	7.65040111541748	-22.28364753723145	39.62583923339844	-85.52391815185547	-145.2889556884766	46.98879623413086	88.52576446533203	125.5455322265625	511.7575988769531	154.337158203125	71.85920715332031	761.5062866210938	147.106689453125	-5.374213695526123	124.7499771118164	367.184814453125	109.5046920776367	385.4940185546875	221.5249786376953	113.2353286743164	52.50799179077148	204.9924774169922	46.5644416809082	81.94424438476562	209.9313659667969	86.87282562255859	54.40996932983398	304.1630249023438	-75.93358612060547	161.8368988037109	368.1376342773438	
373	3.72	-181.1133575439453	950.4259033203125	90.31739807128906	-258.9181823730469	941.3146362304688	-28.58562278747559	-210.0388336181641	1046.601440429688	28.86230659484863	-16.1562385559082	1248.985229492188	-157.3867492675781	-237.0037384033203	1167.807739257812	24.08126449584961	-203.0308227539062	1438.306640625	-31.30704498291016	-59.22451019287109	1358.861450195312	-147.8388214111328	-184.22412109375	1331.663330078125	90.27027130126953	-285.971923828125	1375.892944335938	-83.64630889892578	-256.1334838867188	1391.322998046875	-208.2864685058594	-301.9996032714844	1263.970825195312	-280.6017456054688	-251.7476654052734	1056.730834960938	-333.27294921875	-277.6063842773438	1027.083740234375	-237.9622344970703	-95.60334014892578	900.3517456054688	-352.2531433105469	-155.3650665283203	863.6344604492188	-377.5310668945312	-209.9902954101562	980.1411743164062	-359.83935546875	-33.20423126220703	751.7846069335938	-377.0953979492188	-120.1876449584961	795.1044311523438	-390.6557922363281	-55.5450325012207	827.025146484375	-377.5324096679688	-50.65069961547852	1433.728393554688	52.96167755126953	-17.03536605834961	1386.82568359375	130.8976135253906	41.86801910400391	1117.480224609375	224.8363800048828	-21.31942367553711	1091.293212890625	223.7442474365234	125.9857635498047	914.6201782226562	143.9573669433594	112.0751037597656	904.3865356445312	230.16748046875	59.18154525756836	1061.21142578125	235.9175262451172	153.9040985107422	761.6639404296875	157.0207672119141	158.9550933837891	821.52685546875	148.8031005859375	136.4312591552734	817.9984130859375	222.4761199951172	-67.95030975341797	1645.183715820312	-73.40000915527344	-149.7850799560547	1633.386596679688	-262.9428100585938	-33.614013671875	1651.391845703125	-206.4063110351562	-233.5007629394531	1626.000732421875	-135.1324615478516	-198.6606750488281	836.0487060546875	-197.2817077636719	7.628325939178467	873.3324584960938	143.9594116210938	49.05524063110352	914.5858764648438	29.98874282836914	-78.88080596923828	887.0942993164062	-188.9011383056641	-105.5509719848633	426.8072814941406	-117.1904449462891	-122.9529113769531	575.17578125	-169.8391571044922	-143.8301849365234	32.09445571899414	11.27002143859863	-110.1184768676758	275.5384216308594	-90.58415222167969	90.73476409912109	40.7359504699707	-55.88265228271484	39.2409782409668	51.82847595214844	7.478481769561768	-22.35772514343262	39.51363372802734	-85.7275390625	-145.0971221923828	47.19136047363281	88.56691741943359	135.9227600097656	511.1767578125	144.3147735595703	84.65660858154297	760.6102294921875	136.9685821533203	25.0751781463623	118.7340087890625	357.3713989257812	125.4458618164062	384.2645874023438	210.8368988037109	140.2636871337891	53.61135482788086	189.8028259277344	72.38420104980469	79.8863525390625	197.6276550292969	117.5805587768555	53.24822998046875	289.9709777832031	-46.93141174316406	152.7366333007812	361.6767883300781	
374	3.73	-172.2004241943359	950.1190795898438	89.52046966552734	-252.9767303466797	941.1702880859375	-27.40127372741699	-203.0712280273438	1046.411010742188	28.49383163452148	-12.73460388183594	1248.445068359375	-162.0736694335938	-230.0143890380859	1167.394409179688	23.4330940246582	-197.2765350341797	1437.885131835938	-32.90019607543945	-55.44052124023438	1358.383056640625	-151.6893920898438	-176.4893951416016	1331.176025390625	88.49971771240234	-281.10009765625	1375.540771484375	-83.91865539550781	-253.2934722900391	1390.828857421875	-208.892578125	-299.4006652832031	1263.642333984375	-281.1106567382812	-248.0109100341797	1057.081298828125	-335.8648986816406	-273.3099365234375	1026.656860351562	-240.6875610351562	-91.22120666503906	901.4740600585938	-356.4049987792969	-150.8583984375	864.6787719726562	-381.801025390625	-206.0517578125	980.8566284179688	-363.1154174804688	-28.35292053222656	753.2055053710938	-382.0549926757812	-115.4441375732422	796.2928466796875	-395.3362426757812	-50.93951797485352	828.3480224609375	-382.0639038085938	-43.67346954345703	1433.220703125	49.00210189819336	-8.806355476379395	1386.461791992188	126.4414596557617	52.17000961303711	1117.66357421875	220.2234039306641	-10.99225521087646	1091.216552734375	220.2628631591797	136.0546722412109	915.4871215820312	137.9593505859375	123.5887451171875	905.0037841796875	224.33447265625	69.93447113037109	1061.48095703125	231.0250549316406	165.8536071777344	762.8526000976562	150.4129943847656	170.1150817871094	822.7940673828125	142.2207794189453	148.7707214355469	818.9277954101562	216.2208404541016	-62.77804183959961	1644.705322265625	-76.20095062255859	-145.5929718017578	1633.12890625	-265.29638671875	-29.09081077575684	1650.843383789062	-209.3967590332031	-228.6492767333984	1625.979370117188	-137.1029815673828	-197.3892669677734	836.03857421875	-197.6734771728516	17.92956161499023	872.8265991210938	138.0471038818359	56.20139694213867	914.156005859375	23.08712577819824	-77.32972717285156	886.7216796875	-192.4229583740234	-104.731071472168	426.6139221191406	-118.1731262207031	-122.1623611450195	575.080078125	-170.9030151367188	-143.7204132080078	32.16899490356445	11.34682464599609	-109.7048263549805	275.3836364746094	-91.14886474609375	90.77594757080078	40.68716430664062	-55.96917724609375	39.24878692626953	51.89815902709961	7.321603775024414	-22.42477226257324	39.42698669433594	-85.92124938964844	-144.8751068115234	47.3708610534668	88.6192626953125	145.8999328613281	510.5571594238281	134.3139038085938	96.23113250732422	759.6314697265625	127.446647644043	54.99948883056641	113.0959014892578	346.0947265625	140.9552764892578	383.0680847167969	199.7203369140625	166.3197937011719	54.92745590209961	173.3779296875	97.56344604492188	78.09536743164062	184.0933380126953	147.4159851074219	52.45364379882812	274.4215393066406	-18.1707820892334	143.9994812011719	353.7077331542969	
